<?xml version="1.0" encoding="UTF-8"?>
<svg id="Layer_2" data-name="Layer 2" xmlns="http://www.w3.org/2000/svg" viewBox="0 0 28.28 12.63">
  <g id="Layer_1-2" data-name="Layer 1">
    <g>
      <path d="M28.25,2.32c-1.13.19-2.02,1.08-2.21,2.21,0,.05-.07.05-.07,0-.19-1.13-1.08-2.02-2.21-2.21-.05,0-.05-.07,0-.07,1.13-.19,2.02-1.08,2.21-2.21,0-.05.07-.05.07,0,.19,1.13,1.08,2.02,2.21,2.21.05,0,.05.07,0,.07Z"/>
      <g>
        <g>
          <path d="M.25,12.63c-.17,0-.25-.08-.25-.24v-.61c0-.18.08-.26.25-.26h9.62c.24,0,.41-.11.41-.35,0-.19-.13-.3-.36-.4l-5.69-2.38c-.96-.4-1.52-1.03-1.52-1.98,0-1.19.84-1.97,2.09-1.97h8.55c.17,0,.25.08.25.25v.61c0,.16-.08.24-.25.24h-6.75c-.24,0-.41.12-.41.36,0,.19.13.3.36.4l5.68,2.36c.96.41,1.52,1.04,1.52,1.99,0,1.19-.84,1.97-2.1,1.97H.25Z"/>
          <path d="M18.12,12.63c-2.29,0-3.37-1.42-3.37-3.38v-4.55c0-.17.07-.25.24-.25h3.48c.17,0,.25.08.25.25v4.7c0,1.4.49,2.11,1.75,2.11h5.83c.17,0,.25.08.25.26v.61c0,.16-.08.24-.25.24h-8.19Z"/>
        </g>
        <path d="M0,12.37V2c0-.17.08-.25.24-.25h.61c.18,0,.26.08.26.25v9.9"/>
        <path d="M.21,1.74h22.28c.14,0,.22.08.22.24v.61c0,.18-.07.26-.22.26H.61"/>
        <path d="M25.44,12.37v-6.25c0-.1.08-.15.24-.15h.61c.18,0,.26.05.26.15v5.97"/>
      </g>
      <path d="M24.56,4.47c-.42.07-.76.4-.83.83,0,.02-.02.02-.03,0-.07-.42-.4-.76-.83-.83-.02,0-.02-.03,0-.03.42-.07.76-.41.83-.83,0-.02.03-.02.03,0,.07.42.41.76.83.83.02,0,.02.03,0,.03Z"/>
    </g>
  </g>
</svg>