<?xml version="1.0" encoding="UTF-8"?>
<svg id="Layer_1" data-name="Layer 1" xmlns="http://www.w3.org/2000/svg" width="1920" height="1080" viewBox="0 0 1920 1080">
  <rect x="-.5" y="-.5" width="1920" height="1080" style="stroke: #000; stroke-miterlimit: 10;"/>
  <g>
    <path d="M853.09,459.8c-110.91,2.02-112.5,3.67-114.45,118.52-1.95-114.85-3.54-116.49-114.45-118.52,110.91-2.02,112.5-3.67,114.45-118.52,1.95,114.85,3.54,116.49,114.45,118.52Z" style="fill: #fff;"/>
    <path d="M913.32,345.76c-66.95,1.22-67.9,2.21-69.08,71.54-1.18-69.33-2.14-70.32-69.08-71.54,66.95-1.22,67.9-2.21,69.08-71.54,1.18,69.33,2.14,70.32,69.08,71.54Z" style="fill: #fff;"/>
    <path d="M1240.35,567.13c0,112.66-91.41,203.99-204.17,203.99-9.75,0-19.35-.69-28.73-2.02,99.16-13.95,175.45-99.06,175.45-201.97s-76.29-188.05-175.45-202c9.37-1.32,18.97-2.02,28.73-2.02,112.76,0,204.17,91.35,204.17,204.01Z" style="fill: #d0d2d3;"/>
    <path d="M1182.9,567.13c0,102.91-76.29,188.03-175.45,201.97-99.16-13.95-175.45-99.06-175.45-201.97s76.29-188.05,175.45-202c99.16,13.95,175.45,99.09,175.45,202Z" style="fill: #fff;"/>
    <path d="M994.3,569.78c-110.91,2.02-112.5,3.67-114.45,118.52-1.95-114.85-3.54-116.49-114.45-118.52,110.91-2.02,112.5-3.67,114.45-118.52,1.95,114.85,3.54,116.49,114.45,118.52Z" style="fill: #231f20;"/>
  </g>
</svg>